BoltSansText-Med.ufo
<glyph name="C" format="2">
  <advance width="717"/>
  <unicode hex="0043"/>
  <outline>
    <contour>
      <point x="50.4004" y="355.697" type="curve" smooth="yes"/>
      <point x="50.4004" y="581.861"/>
      <point x="172.005" y="722"/>
      <point x="368.257" y="722" type="curve" smooth="yes"/>
      <point x="541.297" y="722"/>
      <point x="646.192" y="621.38"/>
      <point x="667.4" y="481" type="curve"/>
      <point x="558.4" y="481" type="line"/>
      <point x="536.976" y="562.333"/>
      <point x="473.09" y="624"/>
      <point x="363.878" y="624" type="curve" smooth="yes"/>
      <point x="233.774" y="624"/>
      <point x="156.4" y="524.415"/>
      <point x="156.4" y="356.965" type="curve" smooth="yes"/>
      <point x="156.4" y="186.7"/>
      <point x="236.165" y="83"/>
      <point x="367.13" y="83" type="curve" smooth="yes"/>
      <point x="475.206" y="83"/>
      <point x="538.4" y="144.764"/>
      <point x="558.4" y="225" type="curve"/>
      <point x="667.4" y="225" type="line"/>
      <point x="647.4" y="88.518"/>
      <point x="537.366" y="-15"/>
      <point x="365.925" y="-15" type="curve" smooth="yes"/>
      <point x="172.588" y="-15"/>
      <point x="50.4004" y="128.553"/>
    </contour>
  </outline>
</glyph>
<glyph name="E" format="2">
  <advance width="589"/>
  <unicode hex="0045"/>
  <outline>
    <contour>
      <point x="532" y="93" type="line"/>
      <point x="177" y="83" type="line"/>
      <point x="177" y="317" type="line"/>
      <point x="502" y="307" type="line"/>
      <point x="502" y="400" type="line"/>
      <point x="177" y="390" type="line"/>
      <point x="177" y="627" type="line"/>
      <point x="532" y="617" type="line"/>
      <point x="532" y="710" type="line"/>
      <point x="72" y="710" type="line"/>
      <point x="72" y="0" type="line"/>
      <point x="532" y="0" type="line"/>
    </contour>
  </outline>
</glyph>
<glyph name="F" format="2">
  <advance width="589"/>
  <unicode hex="0046"/>
  <outline>
    <contour>
      <point x="177" y="0" type="line"/>
      <point x="177" y="317" type="line"/>
      <point x="502" y="307" type="line"/>
      <point x="502" y="400" type="line"/>
      <point x="177" y="390" type="line"/>
      <point x="177" y="627" type="line"/>
      <point x="532" y="617" type="line"/>
      <point x="532" y="710" type="line"/>
      <point x="72" y="710" type="line"/>
      <point x="72" y="0" type="line"/>
    </contour>
  </outline>
</glyph>
<glyph name="G" format="2">
  <advance width="717"/>
  <unicode hex="0047"/>
  <outline>
    <contour>
      <point x="667.4" y="0" type="line"/>
      <point x="602.4" y="0" type="line"/>
      <point x="574.4" y="272" type="line"/>
      <point x="355.4" y="272" type="line"/>
      <point x="355.4" y="365" type="line"/>
      <point x="667.4" y="365" type="line"/>
    </contour>
    <contour>
      <point x="50.4004" y="351.727" type="curve" smooth="yes"/>
      <point x="50.4004" y="581.5"/>
      <point x="170.548" y="722"/>
      <point x="367.038" y="722" type="curve" smooth="yes"/>
      <point x="540.404" y="722"/>
      <point x="646.183" y="616.417"/>
      <point x="667.4" y="491" type="curve"/>
      <point x="558.4" y="491" type="line"/>
      <point x="536.959" y="566.389"/>
      <point x="472.146" y="624"/>
      <point x="362.601" y="624" type="curve" smooth="yes"/>
      <point x="232.96" y="624"/>
      <point x="156.4" y="524.811"/>
      <point x="156.4" y="356.853" type="curve" smooth="yes"/>
      <point x="156.4" y="187.104"/>
      <point x="234.725" y="83"/>
      <point x="362.437" y="83" type="curve" smooth="yes"/>
      <point x="485.987" y="83"/>
      <point x="555.4" y="162.857"/>
      <point x="555.4" y="305" type="curve"/>
      <point x="577.4" y="305" type="line"/>
      <point x="577.4" y="103.985"/>
      <point x="489.036" y="-15"/>
      <point x="339.753" y="-15" type="curve" smooth="yes"/>
      <point x="164.467" y="-15"/>
      <point x="50.4004" y="129.567"/>
    </contour>
  </outline>
</glyph>
<glyph name="H" format="2">
  <advance width="709"/>
  <unicode hex="0048"/>
  <outline>
    <contour>
      <point x="72" y="710" type="line"/>
      <point x="177" y="710" type="line"/>
      <point x="177" y="405" type="line"/>
      <point x="532" y="405" type="line"/>
      <point x="532" y="710" type="line"/>
      <point x="637" y="710" type="line"/>
      <point x="637" y="0" type="line"/>
      <point x="532" y="0" type="line"/>
      <point x="532" y="312" type="line"/>
      <point x="177" y="312" type="line"/>
      <point x="177" y="0" type="line"/>
      <point x="72" y="0" type="line"/>
    </contour>
  </outline>
</glyph>
<glyph name="I" format="2">
  <advance width="249"/>
  <unicode hex="0049"/>
  <outline>
    <contour>
      <point x="72" y="710" type="line"/>
      <point x="177" y="710" type="line"/>
      <point x="177" y="0" type="line"/>
      <point x="72" y="0" type="line"/>
    </contour>
  </outline>
</glyph>
<glyph name="K" format="2">
  <advance width="634"/>
  <unicode hex="004B"/>
  <outline>
    <contour>
      <point x="72" y="710" type="line"/>
      <point x="177" y="710" type="line"/>
      <point x="177" y="340" type="line"/>
      <point x="455" y="710" type="line"/>
      <point x="591" y="710" type="line"/>
      <point x="314" y="370" type="line"/>
      <point x="577" y="360" type="line"/>
      <point x="577" y="0" type="line"/>
      <point x="472" y="0" type="line"/>
      <point x="472" y="273" type="line"/>
      <point x="177" y="273" type="line"/>
      <point x="177" y="0" type="line"/>
      <point x="72" y="0" type="line"/>
    </contour>
  </outline>
</glyph>
<glyph name="L" format="2">
  <advance width="575"/>
  <unicode hex="004C"/>
  <outline>
    <contour>
      <point x="532" y="93" type="line"/>
      <point x="177" y="83" type="line"/>
      <point x="177" y="710" type="line"/>
      <point x="72" y="710" type="line"/>
      <point x="72" y="0" type="line"/>
      <point x="532" y="0" type="line"/>
    </contour>
  </outline>
</glyph>
<glyph name="M" format="2">
  <advance width="864"/>
  <unicode hex="004D"/>
  <outline>
    <contour>
      <point x="792" y="710" type="line"/>
      <point x="792" y="0" type="line"/>
      <point x="687" y="0" type="line"/>
      <point x="697" y="587" type="line"/>
      <point x="482" y="140" type="line"/>
      <point x="382" y="140" type="line"/>
      <point x="167" y="587" type="line"/>
      <point x="177" y="0" type="line"/>
      <point x="72" y="0" type="line"/>
      <point x="72" y="710" type="line"/>
      <point x="207" y="710" type="line"/>
      <point x="432" y="243" type="line"/>
      <point x="657" y="710" type="line"/>
    </contour>
  </outline>
</glyph>
<glyph name="N" format="2">
  <advance width="709"/>
  <unicode hex="004E"/>
  <outline>
    <contour>
      <point x="72" y="710" type="line"/>
      <point x="197" y="710" type="line"/>
      <point x="542" y="143" type="line"/>
      <point x="532" y="710" type="line"/>
      <point x="637" y="710" type="line"/>
      <point x="637" y="0" type="line"/>
      <point x="532" y="0" type="line"/>
      <point x="167" y="577" type="line"/>
      <point x="177" y="0" type="line"/>
      <point x="72" y="0" type="line"/>
    </contour>
  </outline>
</glyph>
<glyph name="O" format="2">
  <advance width="722"/>
  <unicode hex="004F"/>
  <outline>
    <contour>
      <point x="50.4004" y="356" type="curve" smooth="yes"/>
      <point x="50.4004" y="580.368"/>
      <point x="169.688" y="722"/>
      <point x="356.4" y="722" type="curve" smooth="yes"/>
      <point x="549.214" y="722"/>
      <point x="672.4" y="580.368"/>
      <point x="672.4" y="356" type="curve" smooth="yes"/>
      <point x="672.4" y="128.658"/>
      <point x="549.214" y="-15"/>
      <point x="356.4" y="-15" type="curve" smooth="yes"/>
      <point x="169.688" y="-15"/>
      <point x="50.4004" y="128.658"/>
    </contour>
    <contour>
      <point x="156.4" y="356" type="curve" smooth="yes"/>
      <point x="156.4" y="187"/>
      <point x="231.785" y="83"/>
      <point x="356.4" y="83" type="curve" smooth="yes"/>
      <point x="487.246" y="83"/>
      <point x="566.4" y="187"/>
      <point x="566.4" y="356" type="curve" smooth="yes"/>
      <point x="566.4" y="523.705"/>
      <point x="487.246" y="624"/>
      <point x="356.4" y="624" type="curve" smooth="yes"/>
      <point x="231.785" y="624"/>
      <point x="156.4" y="523.705"/>
    </contour>
  </outline>
</glyph>
<glyph name="Q" format="2">
  <advance width="716"/>
  <unicode hex="0051"/>
  <outline>
    <contour>
      <point x="332.4" y="253" type="line"/>
      <point x="403.4" y="317" type="line"/>
      <point x="715.4" y="-10" type="line"/>
      <point x="647.4" y="-74" type="line"/>
    </contour>
    <contour>
      <point x="50.4004" y="356" type="curve" smooth="yes"/>
      <point x="50.4004" y="580.368"/>
      <point x="169.688" y="722"/>
      <point x="356.4" y="722" type="curve" smooth="yes"/>
      <point x="549.214" y="722"/>
      <point x="672.4" y="580.368"/>
      <point x="672.4" y="356" type="curve" smooth="yes"/>
      <point x="672.4" y="128.658"/>
      <point x="549.214" y="-15"/>
      <point x="356.4" y="-15" type="curve" smooth="yes"/>
      <point x="169.688" y="-15"/>
      <point x="50.4004" y="128.658"/>
    </contour>
    <contour>
      <point x="156.4" y="356" type="curve" smooth="yes"/>
      <point x="156.4" y="187"/>
      <point x="231.785" y="83"/>
      <point x="356.4" y="83" type="curve" smooth="yes"/>
      <point x="487.246" y="83"/>
      <point x="566.4" y="187"/>
      <point x="566.4" y="356" type="curve" smooth="yes"/>
      <point x="566.4" y="523.705"/>
      <point x="487.246" y="624"/>
      <point x="356.4" y="624" type="curve" smooth="yes"/>
      <point x="231.785" y="624"/>
      <point x="156.4" y="523.705"/>
    </contour>
  </outline>
</glyph>
<glyph name="S" format="2">
  <advance width="665"/>
  <unicode hex="0053"/>
  <outline>
    <contour>
      <point x="615.4" y="193.236" type="curve" smooth="yes"/>
      <point x="615.4" y="300.828"/>
      <point x="533.269" y="377.982"/>
      <point x="411.4" y="399.602" type="curve" smooth="yes"/>
      <point x="283.4" y="422.309" type="line" smooth="yes"/>
      <point x="204.862" y="436.241"/>
      <point x="165.4" y="470.222"/>
      <point x="165.4" y="520.73" type="curve" smooth="yes"/>
      <point x="165.4" y="583.663"/>
      <point x="231.205" y="630"/>
      <point x="326.495" y="630" type="curve" smooth="yes"/>
      <point x="426.678" y="630"/>
      <point x="499.4" y="578.213"/>
      <point x="499.4" y="503" type="curve"/>
      <point x="605.4" y="503" type="line"/>
      <point x="605.4" y="630.781"/>
      <point x="485.366" y="722"/>
      <point x="320.011" y="722" type="curve" smooth="yes"/>
      <point x="160.76" y="722"/>
      <point x="60.4004" y="641.894"/>
      <point x="60.4004" y="519.403" type="curve" smooth="yes"/>
      <point x="60.4004" y="415.043"/>
      <point x="136.698" y="343.72"/>
      <point x="253.4" y="322.003" type="curve" smooth="yes"/>
      <point x="383.4" y="297.812" type="line" smooth="yes"/>
      <point x="471.928" y="281.338"/>
      <point x="510.4" y="242.841"/>
      <point x="510.4" y="193.335" type="curve" smooth="yes"/>
      <point x="510.4" y="126.751"/>
      <point x="439.444" y="81"/>
      <point x="337.158" y="81" type="curve" smooth="yes"/>
      <point x="228.354" y="81"/>
      <point x="156.4" y="127.305"/>
      <point x="156.4" y="199" type="curve"/>
      <point x="50.4004" y="199" type="line"/>
      <point x="50.4004" y="79.0667"/>
      <point x="176.824" y="-10"/>
      <point x="347.146" y="-10" type="curve" smooth="yes"/>
      <point x="510.07" y="-10"/>
      <point x="615.4" y="70.6846"/>
    </contour>
  </outline>
</glyph>
<glyph name="T" format="2">
  <advance width="605"/>
  <unicode hex="0054"/>
  <outline>
    <contour>
      <point x="562.2" y="617" type="line"/>
      <point x="562.2" y="710" type="line"/>
      <point x="43.2002" y="710" type="line"/>
      <point x="43.2002" y="617" type="line"/>
      <point x="250.2" y="627" type="line"/>
      <point x="250.2" y="0" type="line"/>
      <point x="355.2" y="0" type="line"/>
      <point x="355.2" y="627" type="line"/>
    </contour>
  </outline>
</glyph>
<glyph name="a" format="2">
  <advance width="563"/>
  <unicode hex="0061"/>
  <outline>
    <contour>
      <point x="365.4" y="328" type="line" smooth="yes"/>
      <point x="365.4" y="384.891"/>
      <point x="325.291" y="425"/>
      <point x="268.4" y="425" type="curve" smooth="yes"/>
      <point x="213.955" y="425"/>
      <point x="184.231" y="405.475"/>
      <point x="166.4" y="358" type="curve"/>
      <point x="55.4004" y="358" type="line"/>
      <point x="70.8928" y="452.457"/>
      <point x="150.021" y="512"/>
      <point x="266.4" y="512" type="curve" smooth="yes"/>
      <point x="388.587" y="512"/>
      <point x="470.4" y="440.411"/>
      <point x="470.4" y="328" type="curve" smooth="yes"/>
      <point x="470.4" y="85" type="line"/>
      <point x="530.4" y="85" type="line"/>
      <point x="530.4" y="0" type="line"/>
      <point x="495.4" y="0" type="line" smooth="yes"/>
      <point x="434.296" y="0"/>
      <point x="387.4" y="22.7275"/>
      <point x="367.4" y="107" type="curve"/>
      <point x="351.34" y="17.9912"/>
      <point x="285.573" y="-15"/>
      <point x="202.4" y="-15" type="curve" smooth="yes"/>
      <point x="122.868" y="-15"/>
      <point x="50.4004" y="45.0019"/>
      <point x="50.4004" y="131" type="curve" smooth="yes"/>
      <point x="50.4004" y="231.06"/>
      <point x="120.461" y="290"/>
      <point x="239.4" y="290" type="curve" smooth="yes"/>
      <point x="365.4" y="290" type="line"/>
    </contour>
    <contour>
      <point x="365.4" y="205" type="line"/>
      <point x="244.4" y="205" type="line" smooth="yes"/>
      <point x="185.509" y="205"/>
      <point x="156.4" y="182.507"/>
      <point x="156.4" y="137" type="curve" smooth="yes"/>
      <point x="156.4" y="96.9728"/>
      <point x="187.116" y="73"/>
      <point x="238.4" y="73" type="curve" smooth="yes"/>
      <point x="317.918" y="73"/>
      <point x="365.4" y="113.753"/>
      <point x="365.4" y="182" type="curve" smooth="yes"/>
    </contour>
  </outline>
</glyph>
<glyph name="b" format="2">
  <advance width="593"/>
  <unicode hex="0062"/>
  <outline>
    <contour>
      <point x="72" y="750" type="line"/>
      <point x="177" y="750" type="line"/>
      <point x="177" y="356" type="line"/>
      <point x="208.437" y="456.919"/>
      <point x="267.048" y="512"/>
      <point x="343" y="512" type="curve" smooth="yes"/>
      <point x="464.188" y="512"/>
      <point x="543" y="408.755"/>
      <point x="543" y="250" type="curve" smooth="yes"/>
      <point x="543" y="89.8379"/>
      <point x="463.877" y="-15"/>
      <point x="343" y="-15" type="curve" smooth="yes"/>
      <point x="266.793" y="-15"/>
      <point x="208.327" y="40.2959"/>
      <point x="177" y="142" type="curve"/>
      <point x="137" y="0" type="line"/>
      <point x="72" y="0" type="line"/>
    </contour>
    <contour>
      <point x="177" y="250" type="line" smooth="yes"/>
      <point x="177" y="144.035"/>
      <point x="226.91" y="78"/>
      <point x="307" y="78" type="curve" smooth="yes"/>
      <point x="387.09" y="78"/>
      <point x="437" y="144.035"/>
      <point x="437" y="250" type="curve" smooth="yes"/>
      <point x="437" y="355.721"/>
      <point x="388.323" y="419"/>
      <point x="307" y="419" type="curve" smooth="yes"/>
      <point x="225.677" y="419"/>
      <point x="177" y="355.721"/>
      <point x="177" y="250" type="curve" smooth="yes"/>
    </contour>
  </outline>
</glyph>
<glyph name="c" format="2">
  <advance width="574"/>
  <unicode hex="0063"/>
  <outline>
    <contour>
      <point x="50.4004" y="249.5" type="curve" smooth="yes"/>
      <point x="50.4004" y="410.701"/>
      <point x="144.06" y="512"/>
      <point x="293.103" y="512" type="curve" smooth="yes"/>
      <point x="423.188" y="512"/>
      <point x="506.499" y="436.701"/>
      <point x="517.4" y="331" type="curve"/>
      <point x="408.4" y="331" type="line"/>
      <point x="397.541" y="381.026"/>
      <point x="356.937" y="419"/>
      <point x="291.13" y="419" type="curve" smooth="yes"/>
      <point x="206.9" y="419"/>
      <point x="156.4" y="355.654"/>
      <point x="156.4" y="250" type="curve" smooth="yes"/>
      <point x="156.4" y="142.824"/>
      <point x="208.121" y="78"/>
      <point x="293.634" y="78" type="curve" smooth="yes"/>
      <point x="358.545" y="78"/>
      <point x="398.4" y="114.49"/>
      <point x="408.4" y="162" type="curve"/>
      <point x="517.4" y="162" type="line"/>
      <point x="507.4" y="60.721"/>
      <point x="419.222" y="-15"/>
      <point x="287.905" y="-15" type="curve" smooth="yes"/>
      <point x="142.645" y="-15"/>
      <point x="50.4004" y="87.7285"/>
    </contour>
  </outline>
</glyph>
<glyph name="d" format="2">
  <advance width="592"/>
  <unicode hex="0064"/>
  <outline>
    <contour>
      <point x="521.4" y="750" type="line"/>
      <point x="416.4" y="750" type="line"/>
      <point x="416.4" y="356" type="line"/>
      <point x="385.4" y="455.518"/>
      <point x="327.4" y="512"/>
      <point x="250.4" y="512" type="curve" smooth="yes"/>
      <point x="129.4" y="512"/>
      <point x="50.4004" y="409"/>
      <point x="50.4004" y="250" type="curve" smooth="yes"/>
      <point x="50.4004" y="90"/>
      <point x="129.4" y="-15"/>
      <point x="250.4" y="-15" type="curve" smooth="yes"/>
      <point x="327.4" y="-15"/>
      <point x="385.4" y="41.3594"/>
      <point x="416.4" y="142" type="curve"/>
      <point x="458.4" y="0" type="line"/>
      <point x="521.4" y="0" type="line"/>
    </contour>
    <contour>
      <point x="416.4" y="250" type="curve" smooth="yes"/>
      <point x="416.4" y="143.916"/>
      <point x="366.4" y="78"/>
      <point x="286.4" y="78" type="curve" smooth="yes"/>
      <point x="206.4" y="78"/>
      <point x="156.4" y="143.916"/>
      <point x="156.4" y="250" type="curve" smooth="yes"/>
      <point x="156.4" y="356.14"/>
      <point x="205.4" y="419"/>
      <point x="286.4" y="419" type="curve" smooth="yes"/>
      <point x="367.4" y="419"/>
      <point x="416.4" y="356.14"/>
    </contour>
  </outline>
</glyph>
<glyph name="e" format="2">
  <advance width="572"/>
  <unicode hex="0065"/>
  <outline>
    <contour>
      <point x="410.4" y="306" type="line"/>
      <point x="410.4" y="385.028"/>
      <point x="350.4" y="424"/>
      <point x="286.4" y="424" type="curve" smooth="yes"/>
      <point x="222.4" y="424"/>
      <point x="168.4" y="378.386"/>
      <point x="162.4" y="306" type="curve"/>
    </contour>
    <contour>
      <point x="50.4004" y="251" type="curve" smooth="yes"/>
      <point x="50.4004" y="411"/>
      <point x="142.4" y="512"/>
      <point x="286.4" y="512" type="curve" smooth="yes"/>
      <point x="430.4" y="512"/>
      <point x="522.4" y="415.386"/>
      <point x="522.4" y="262" type="curve" smooth="yes"/>
      <point x="522.4" y="248"/>
      <point x="521.4" y="240"/>
      <point x="520.4" y="227" type="curve"/>
      <point x="158.4" y="227" type="line"/>
      <point x="164.798" y="135.225"/>
      <point x="224.104" y="73"/>
      <point x="303.4" y="73" type="curve" smooth="yes"/>
      <point x="364.507" y="73"/>
      <point x="398.269" y="96.946"/>
      <point x="408.4" y="136" type="curve"/>
      <point x="517.4" y="136" type="line"/>
      <point x="506.844" y="37.7532"/>
      <point x="426.612" y="-15"/>
      <point x="303.4" y="-15" type="curve" smooth="yes"/>
      <point x="149.027" y="-15"/>
      <point x="50.4004" y="88"/>
    </contour>
  </outline>
</glyph>
<glyph name="f" format="2">
  <advance width="425"/>
  <unicode hex="0066"/>
  <outline>
    <contour>
      <point x="259" y="490" type="line"/>
      <point x="389" y="500" type="line"/>
      <point x="389" y="407" type="line"/>
      <point x="259" y="417" type="line"/>
      <point x="259" y="0" type="line"/>
      <point x="154" y="0" type="line"/>
      <point x="154" y="417" type="line"/>
      <point x="36" y="407" type="line"/>
      <point x="36" y="500" type="line"/>
      <point x="154" y="490" type="line"/>
      <point x="154" y="630" type="line" smooth="yes"/>
      <point x="154" y="704.4"/>
      <point x="200.846" y="750"/>
      <point x="280" y="750" type="curve" smooth="yes"/>
      <point x="389" y="750" type="line"/>
      <point x="389" y="655" type="line"/>
      <point x="259" y="665" type="line"/>
    </contour>
  </outline>
</glyph>
<glyph name="g" format="2">
  <advance width="490"/>
  <unicode hex="0067"/>
  <outline>
    <contour>
      <point x="201.76" y="-28" type="line" smooth="yes"/>
      <point x="145.806" y="-28"/>
      <point x="111.76" y="-52.9669"/>
      <point x="111.76" y="-94" type="curve" smooth="yes"/>
      <point x="111.76" y="-138.089"/>
      <point x="145.873" y="-165"/>
      <point x="201.76" y="-165" type="curve" smooth="yes"/>
      <point x="283.76" y="-165" type="line" smooth="yes"/>
      <point x="339.714" y="-165"/>
      <point x="373.76" y="-140.033"/>
      <point x="373.76" y="-99" type="curve" smooth="yes"/>
      <point x="373.76" y="-54.911"/>
      <point x="339.647" y="-28"/>
      <point x="283.76" y="-28" type="curve" smooth="yes"/>
    </contour>
    <contour>
      <point x="191.76" y="-250" type="line" smooth="yes"/>
      <point x="78.0026" y="-250"/>
      <point x="5.75977" y="-206.111"/>
      <point x="5.75977" y="-137" type="curve" smooth="yes"/>
      <point x="5.75977" y="-69.1676"/>
      <point x="54.8949" y="-26.2661"/>
      <point x="139.76" y="-20" type="curve"/>
      <point x="89.0098" y="-15.5196"/>
      <point x="55.7598" y="20.8971"/>
      <point x="55.7598" y="72" type="curve" smooth="yes"/>
      <point x="55.7598" y="123.396"/>
      <point x="85.8259" y="161.074"/>
      <point x="134.76" y="171" type="curve"/>
      <point x="71.6498" y="201.478"/>
      <point x="36.7598" y="258.441"/>
      <point x="36.7598" y="331" type="curve" smooth="yes"/>
      <point x="36.7598" y="441.845"/>
      <point x="112.728" y="512"/>
      <point x="232.76" y="512" type="curve" smooth="yes"/>
      <point x="459.76" y="512" type="line"/>
      <point x="459.76" y="435" type="line"/>
      <point x="310.76" y="445" type="line"/>
      <point x="382.768" y="414.811"/>
      <point x="426.76" y="360.2"/>
      <point x="426.76" y="301" type="curve" smooth="yes"/>
      <point x="426.76" y="205.819"/>
      <point x="351.126" y="145"/>
      <point x="232.76" y="145" type="curve" smooth="yes"/>
      <point x="173.892" y="145"/>
      <point x="151.76" y="120.955"/>
      <point x="151.76" y="57" type="curve"/>
      <point x="283.76" y="57" type="line" smooth="yes"/>
      <point x="403.387" y="57"/>
      <point x="479.76" y="-3.78685"/>
      <point x="479.76" y="-99" type="curve" smooth="yes"/>
      <point x="479.76" y="-191.65"/>
      <point x="404.021" y="-250"/>
      <point x="283.76" y="-250" type="curve" smooth="yes"/>
    </contour>
    <contour>
      <point x="142.76" y="331" type="curve" smooth="yes"/>
      <point x="142.76" y="266.144"/>
      <point x="176.635" y="227"/>
      <point x="232.76" y="227" type="curve" smooth="yes"/>
      <point x="288.885" y="227"/>
      <point x="322.76" y="266.144"/>
      <point x="322.76" y="331" type="curve" smooth="yes"/>
      <point x="322.76" y="392.8"/>
      <point x="288.942" y="430"/>
      <point x="232.76" y="430" type="curve" smooth="yes"/>
      <point x="176.578" y="430"/>
      <point x="142.76" y="392.8"/>
    </contour>
  </outline>
</glyph>
<glyph name="h" format="2">
  <advance width="589"/>
  <unicode hex="0068"/>
  <outline>
    <contour>
      <point x="72" y="750" type="line"/>
      <point x="177" y="750" type="line"/>
      <point x="177" y="368" type="line"/>
      <point x="202" y="451.077"/>
      <point x="264" y="512"/>
      <point x="345" y="512" type="curve" smooth="yes"/>
      <point x="458" y="512"/>
      <point x="517" y="431"/>
      <point x="517" y="310" type="curve" smooth="yes"/>
      <point x="517" y="0" type="line"/>
      <point x="412" y="0" type="line"/>
      <point x="412" y="300" type="line" smooth="yes"/>
      <point x="412" y="365.763"/>
      <point x="373" y="419"/>
      <point x="303" y="419" type="curve" smooth="yes"/>
      <point x="229" y="419"/>
      <point x="177" y="359.5"/>
      <point x="177" y="300" type="curve" smooth="yes"/>
      <point x="177" y="0" type="line"/>
      <point x="72" y="0" type="line"/>
    </contour>
  </outline>
</glyph>
<glyph name="i" format="2">
  <advance width="249"/>
  <unicode hex="0069"/>
  <outline>
    <contour>
      <point x="72" y="500" type="line"/>
      <point x="177" y="500" type="line"/>
      <point x="177" y="0" type="line"/>
      <point x="72" y="0" type="line"/>
    </contour>
    <contour>
      <point x="72" y="692" type="line"/>
      <point x="177" y="692" type="line"/>
      <point x="177" y="584" type="line"/>
      <point x="72" y="584" type="line"/>
    </contour>
  </outline>
</glyph>
<glyph name="j" format="2">
  <advance width="249"/>
  <unicode hex="006A"/>
  <outline>
    <contour>
      <point x="72" y="500" type="line"/>
      <point x="177" y="500" type="line"/>
      <point x="177" y="-80" type="line" smooth="yes"/>
      <point x="177" y="-155"/>
      <point x="129" y="-200"/>
      <point x="51" y="-200" type="curve" smooth="yes"/>
      <point x="-28" y="-200" type="line"/>
      <point x="-28" y="-105" type="line"/>
      <point x="72" y="-115" type="line"/>
    </contour>
    <contour>
      <point x="72" y="692" type="line"/>
      <point x="177" y="692" type="line"/>
      <point x="177" y="584" type="line"/>
      <point x="72" y="584" type="line"/>
    </contour>
  </outline>
</glyph>
<glyph name="k" format="2">
  <advance width="589"/>
  <unicode hex="006B"/>
  <outline>
    <contour>
      <point x="72" y="750" type="line"/>
      <point x="177" y="750" type="line"/>
      <point x="177" y="260" type="line"/>
      <point x="364" y="500" type="line"/>
      <point x="500" y="500" type="line"/>
      <point x="314" y="295" type="line"/>
      <point x="517" y="275" type="line"/>
      <point x="517" y="0" type="line"/>
      <point x="412" y="0" type="line"/>
      <point x="412" y="193" type="line"/>
      <point x="177" y="193" type="line"/>
      <point x="177" y="0" type="line"/>
      <point x="72" y="0" type="line"/>
    </contour>
  </outline>
</glyph>
<glyph name="m" format="2">
  <advance width="889"/>
  <unicode hex="006D"/>
  <outline>
    <contour>
      <point x="72" y="500" type="line"/>
      <point x="157" y="500" type="line"/>
      <point x="177" y="371" type="line"/>
      <point x="200" y="453.366"/>
      <point x="258" y="512"/>
      <point x="335" y="512" type="curve" smooth="yes"/>
      <point x="414" y="512"/>
      <point x="465" y="451.615"/>
      <point x="486" y="355" type="curve"/>
      <point x="507" y="443.564"/>
      <point x="570" y="512"/>
      <point x="655" y="512" type="curve" smooth="yes"/>
      <point x="762" y="512"/>
      <point x="817" y="431"/>
      <point x="817" y="310" type="curve" smooth="yes"/>
      <point x="817" y="0" type="line"/>
      <point x="712" y="0" type="line"/>
      <point x="712" y="300" type="line" smooth="yes"/>
      <point x="712" y="365.763"/>
      <point x="676" y="419"/>
      <point x="613" y="419" type="curve" smooth="yes"/>
      <point x="545" y="419"/>
      <point x="497" y="364.5"/>
      <point x="497" y="310" type="curve" smooth="yes"/>
      <point x="497" y="0" type="line"/>
      <point x="392" y="0" type="line"/>
      <point x="392" y="300" type="line" smooth="yes"/>
      <point x="392" y="365.763"/>
      <point x="356" y="419"/>
      <point x="293" y="419" type="curve" smooth="yes"/>
      <point x="225" y="419"/>
      <point x="177" y="359.5"/>
      <point x="177" y="300" type="curve" smooth="yes"/>
      <point x="177" y="0" type="line"/>
      <point x="72" y="0" type="line"/>
    </contour>
  </outline>
</glyph>
<glyph name="o" format="2">
  <advance width="572"/>
  <unicode hex="006F"/>
  <outline>
    <contour>
      <point x="50.4004" y="251" type="curve" smooth="yes"/>
      <point x="50.4004" y="411"/>
      <point x="142.4" y="512"/>
      <point x="286.4" y="512" type="curve" smooth="yes"/>
      <point x="430.4" y="512"/>
      <point x="522.4" y="411"/>
      <point x="522.4" y="251" type="curve" smooth="yes"/>
      <point x="522.4" y="88"/>
      <point x="430.4" y="-15"/>
      <point x="286.4" y="-15" type="curve" smooth="yes"/>
      <point x="142.4" y="-15"/>
      <point x="50.4004" y="88"/>
    </contour>
    <contour>
      <point x="156.4" y="251" type="curve" smooth="yes"/>
      <point x="156.4" y="143.905"/>
      <point x="205.4" y="78"/>
      <point x="286.4" y="78" type="curve" smooth="yes"/>
      <point x="367.4" y="78"/>
      <point x="416.4" y="143.905"/>
      <point x="416.4" y="251" type="curve" smooth="yes"/>
      <point x="416.4" y="356.129"/>
      <point x="367.4" y="419"/>
      <point x="286.4" y="419" type="curve" smooth="yes"/>
      <point x="205.4" y="419"/>
      <point x="156.4" y="356.129"/>
    </contour>
  </outline>
</glyph>
<glyph name="p" format="2">
  <advance width="593"/>
  <unicode hex="0070"/>
  <outline>
    <contour>
      <point x="72" y="-200" type="line"/>
      <point x="177" y="-200" type="line"/>
      <point x="177" y="144" type="line"/>
      <point x="208" y="44.4824"/>
      <point x="266" y="-12"/>
      <point x="343" y="-12" type="curve" smooth="yes"/>
      <point x="464" y="-12"/>
      <point x="543" y="91"/>
      <point x="543" y="250" type="curve" smooth="yes"/>
      <point x="543" y="410"/>
      <point x="464" y="515"/>
      <point x="343" y="515" type="curve" smooth="yes"/>
      <point x="266" y="515"/>
      <point x="208" y="458.641"/>
      <point x="177" y="358" type="curve"/>
      <point x="137" y="500" type="line"/>
      <point x="72" y="500" type="line"/>
    </contour>
    <contour>
      <point x="177" y="250" type="curve" smooth="yes"/>
      <point x="177" y="356.084"/>
      <point x="227" y="422"/>
      <point x="307" y="422" type="curve" smooth="yes"/>
      <point x="387" y="422"/>
      <point x="437" y="356.084"/>
      <point x="437" y="250" type="curve" smooth="yes"/>
      <point x="437" y="143.86"/>
      <point x="388" y="81"/>
      <point x="307" y="81" type="curve" smooth="yes"/>
      <point x="226" y="81"/>
      <point x="177" y="143.86"/>
    </contour>
  </outline>
</glyph>
<glyph name="q" format="2">
  <advance width="592"/>
  <unicode hex="0071"/>
  <outline>
    <contour>
      <point x="521.4" y="-200" type="line"/>
      <point x="416.4" y="-200" type="line"/>
      <point x="416.4" y="144" type="line"/>
      <point x="385.4" y="44.4824"/>
      <point x="327.4" y="-12"/>
      <point x="250.4" y="-12" type="curve" smooth="yes"/>
      <point x="129.4" y="-12"/>
      <point x="50.4004" y="91"/>
      <point x="50.4004" y="250" type="curve" smooth="yes"/>
      <point x="50.4004" y="410"/>
      <point x="129.4" y="515"/>
      <point x="250.4" y="515" type="curve" smooth="yes"/>
      <point x="327.4" y="515"/>
      <point x="385.4" y="458.641"/>
      <point x="416.4" y="358" type="curve"/>
      <point x="456.4" y="500" type="line"/>
      <point x="521.4" y="500" type="line"/>
    </contour>
    <contour>
      <point x="416.4" y="250" type="curve" smooth="yes"/>
      <point x="416.4" y="356.084"/>
      <point x="366.4" y="422"/>
      <point x="286.4" y="422" type="curve" smooth="yes"/>
      <point x="206.4" y="422"/>
      <point x="156.4" y="356.084"/>
      <point x="156.4" y="250" type="curve" smooth="yes"/>
      <point x="156.4" y="143.86"/>
      <point x="205.4" y="81"/>
      <point x="286.4" y="81" type="curve" smooth="yes"/>
      <point x="367.4" y="81"/>
      <point x="416.4" y="143.86"/>
    </contour>
  </outline>
</glyph>
<glyph name="r" format="2">
  <advance width="443"/>
  <unicode hex="0072"/>
  <outline>
    <contour>
      <point x="72" y="500" type="line"/>
      <point x="137" y="500" type="line"/>
      <point x="177" y="397" type="line"/>
      <point x="195.922" y="475.109"/>
      <point x="242.669" y="510"/>
      <point x="305" y="510" type="curve" smooth="yes"/>
      <point x="368.648" y="510"/>
      <point x="407" y="471.538"/>
      <point x="407" y="410" type="curve" smooth="yes"/>
      <point x="407" y="290" type="line"/>
      <point x="313" y="290" type="line"/>
      <point x="303" y="424" type="line"/>
      <point x="263" y="424" type="line" smooth="yes"/>
      <point x="216.854" y="424"/>
      <point x="177" y="397.842"/>
      <point x="177" y="320" type="curve" smooth="yes"/>
      <point x="177" y="0" type="line"/>
      <point x="72" y="0" type="line"/>
    </contour>
  </outline>
</glyph>
<glyph name="s" format="2">
  <advance width="505"/>
  <unicode hex="0073"/>
  <outline>
    <contour>
      <point x="455.4" y="143.236" type="curve" smooth="yes"/>
      <point x="455.4" y="222.153"/>
      <point x="399.324" y="277.693"/>
      <point x="311.4" y="294.602" type="curve" smooth="yes"/>
      <point x="223.4" y="307.309" type="line" smooth="yes"/>
      <point x="185.786" y="314.554"/>
      <point x="165.4" y="333.315"/>
      <point x="165.4" y="360.73" type="curve" smooth="yes"/>
      <point x="165.4" y="397.746"/>
      <point x="198.526" y="425"/>
      <point x="246.495" y="425" type="curve" smooth="yes"/>
      <point x="300.325" y="425"/>
      <point x="329.4" y="404.718"/>
      <point x="339.4" y="368" type="curve"/>
      <point x="445.4" y="368" type="line"/>
      <point x="435.4" y="454.938"/>
      <point x="359.014" y="512"/>
      <point x="240.011" y="512" type="curve" smooth="yes"/>
      <point x="129.834" y="512"/>
      <point x="60.4004" y="451.663"/>
      <point x="60.4004" y="359.403" type="curve" smooth="yes"/>
      <point x="60.4004" y="282.006"/>
      <point x="111.289" y="225.265"/>
      <point x="193.4" y="213.003" type="curve" smooth="yes"/>
      <point x="273.4" y="200.812" type="line" smooth="yes"/>
      <point x="330.503" y="191.63"/>
      <point x="350.4" y="170.57"/>
      <point x="350.4" y="143.335" type="curve" smooth="yes"/>
      <point x="350.4" y="103.423"/>
      <point x="312.21" y="76"/>
      <point x="257.158" y="76" type="curve" smooth="yes"/>
      <point x="196.508" y="76"/>
      <point x="166.4" y="96.7227"/>
      <point x="156.4" y="135" type="curve"/>
      <point x="50.4004" y="135" type="line"/>
      <point x="60.4004" y="49.4971"/>
      <point x="142.742" y="-10"/>
      <point x="267.146" y="-10" type="curve" smooth="yes"/>
      <point x="381.482" y="-10"/>
      <point x="455.4" y="50.834"/>
    </contour>
  </outline>
</glyph>
<glyph name="t" format="2">
  <advance width="425"/>
  <unicode hex="0074"/>
  <outline>
    <contour>
      <point x="259" y="417" type="line"/>
      <point x="259" y="85" type="line"/>
      <point x="389" y="95" type="line"/>
      <point x="389" y="0" type="line"/>
      <point x="260" y="0" type="line" smooth="yes"/>
      <point x="193.75" y="0"/>
      <point x="154" y="41.4619"/>
      <point x="154" y="110" type="curve" smooth="yes"/>
      <point x="154" y="417" type="line"/>
      <point x="36" y="407" type="line"/>
      <point x="36" y="500" type="line"/>
      <point x="154" y="490" type="line"/>
      <point x="154" y="639" type="line"/>
      <point x="259" y="689" type="line"/>
      <point x="259" y="490" type="line"/>
      <point x="386" y="500" type="line"/>
      <point x="386" y="407" type="line"/>
    </contour>
  </outline>
</glyph>
<glyph name="u" format="2">
  <advance width="569"/>
  <unicode hex="0075"/>
  <outline>
    <contour>
      <point x="497" y="0" type="line"/>
      <point x="432" y="0" type="line"/>
      <point x="392" y="132" type="line"/>
      <point x="369.083" y="48.9229"/>
      <point x="310.773" y="-12"/>
      <point x="234" y="-12" type="curve" smooth="yes"/>
      <point x="127.569" y="-12"/>
      <point x="72" y="69"/>
      <point x="72" y="190" type="curve" smooth="yes"/>
      <point x="72" y="500" type="line"/>
      <point x="177" y="500" type="line"/>
      <point x="177" y="200" type="line" smooth="yes"/>
      <point x="177" y="134.237"/>
      <point x="212.422" y="81"/>
      <point x="276" y="81" type="curve" smooth="yes"/>
      <point x="344.127" y="81"/>
      <point x="392" y="140.5"/>
      <point x="392" y="200" type="curve" smooth="yes"/>
      <point x="392" y="500" type="line"/>
      <point x="497" y="500" type="line"/>
    </contour>
  </outline>
</glyph>
<glyph name="v" format="2">
  <advance width="534"/>
  <unicode hex="0076"/>
  <outline>
    <contour>
      <point x="36" y="500" type="line"/>
      <point x="145" y="500" type="line"/>
      <point x="268.5" y="80.3574" type="line"/>
      <point x="392" y="500" type="line"/>
      <point x="498" y="500" type="line"/>
      <point x="346" y="0" type="line"/>
      <point x="188" y="0" type="line"/>
    </contour>
  </outline>
</glyph>
<glyph name="w" format="2">
  <advance width="830"/>
  <unicode hex="0077"/>
  <outline>
    <contour>
      <point x="36" y="500" type="line"/>
      <point x="145" y="500" type="line"/>
      <point x="248.5" y="80.3574" type="line"/>
      <point x="352" y="500" type="line"/>
      <point x="481" y="500" type="line"/>
      <point x="587.5" y="80.3574" type="line"/>
      <point x="688" y="500" type="line"/>
      <point x="794" y="500" type="line"/>
      <point x="662" y="0" type="line"/>
      <point x="504" y="0" type="line"/>
      <point x="410" y="395.931" type="line"/>
      <point x="326" y="0" type="line"/>
      <point x="168" y="0" type="line"/>
    </contour>
  </outline>
</glyph>
<glyph name="x" format="2">
  <advance width="574"/>
  <unicode hex="0078"/>
  <outline>
    <contour>
      <point x="36" y="500" type="line"/>
      <point x="149" y="500" type="line"/>
      <point x="288.5" y="299.357" type="line"/>
      <point x="428" y="500" type="line"/>
      <point x="538" y="500" type="line"/>
      <point x="364.808" y="250.5" type="line"/>
      <point x="538" y="1" type="line"/>
      <point x="425" y="1" type="line"/>
      <point x="285.5" y="201.643" type="line"/>
      <point x="146" y="1" type="line"/>
      <point x="36" y="1" type="line"/>
      <point x="209.192" y="250.5" type="line"/>
    </contour>
  </outline>
</glyph>
<glyph name="y" format="2">
  <advance width="574"/>
  <unicode hex="0079"/>
  <outline>
    <contour>
      <point x="36" y="500" type="line"/>
      <point x="145" y="500" type="line"/>
      <point x="288" y="110" type="line"/>
      <point x="432" y="500" type="line"/>
      <point x="538" y="500" type="line"/>
      <point x="344" y="-34" type="line" smooth="yes"/>
      <point x="319.137" y="-106.817"/>
      <point x="273.641" y="-198"/>
      <point x="148" y="-198" type="curve" smooth="yes"/>
      <point x="30" y="-198" type="line"/>
      <point x="30" y="-110" type="line"/>
      <point x="134" y="-110" type="line" smooth="yes"/>
      <point x="199.934" y="-110"/>
      <point x="232.62" y="-50.6743"/>
      <point x="249" y="-1" type="curve" smooth="yes"/>
      <point x="260" y="30" type="line"/>
      <point x="218" y="30" type="line"/>
    </contour>
  </outline>
</glyph>
<glyph name="z" format="2">
  <advance width="527"/>
  <unicode hex="007A"/>
  <outline>
    <contour>
      <point x="470.6" y="88" type="line"/>
      <point x="470.6" y="0" type="line"/>
      <point x="57.5996" y="0" type="line"/>
      <point x="57.5996" y="98" type="line"/>
      <point x="366.229" y="422" type="line"/>
      <point x="57.5996" y="412" type="line"/>
      <point x="57.5996" y="500" type="line"/>
      <point x="470.6" y="500" type="line"/>
      <point x="470.6" y="392" type="line"/>
      <point x="161.971" y="78" type="line"/>
    </contour>
  </outline>
</glyph>
